<?xml version="1.0" encoding="UTF-8" standalone="no"?><!DOCTYPE svg PUBLIC "-//W3C//DTD SVG 1.1//EN"
        "http://www.w3.org/Graphics/SVG/1.1/DTD/svg11.dtd">
<svg width="100%" height="100%" viewBox="0 0 538 499" version="1.1" xmlns="http://www.w3.org/2000/svg"
     xmlns:xlink="http://www.w3.org/1999/xlink" xml:space="preserve" xmlns:serif="http://www.serif.com/"
     style="fill-rule:evenodd;clip-rule:evenodd;stroke-linecap:round;stroke-linejoin:round;stroke-miterlimit:2;"><rect id="Plan-de-travail1" serif:id="Plan de travail1" x="0" y="0" width="537.02" height="498.711" style="fill:none;"/>
    <path d="M60.11,288.68l180.7,168.7c7.5,7 17.4,10.9 27.7,10.9c10.3,0 20.2,-3.9 27.7,-10.9l180.7,-168.7c30.4,-28.3 47.6,-68 47.6,-109.5l-0,-5.8c-0,-69.9 -50.5,-129.5 -119.4,-141c-45.6,-7.6 -92,7.3 -124.6,39.9l-12,12l-12,-12c-32.6,-32.6 -79,-47.5 -124.6,-39.9c-68.9,11.5 -119.4,71.1 -119.4,141l-0,5.8c-0,41.5 17.2,81.2 47.6,109.5Z"
          style="fill-rule:nonzero;stroke:#000;stroke-width:3px;"/></svg>